<svg width="24" height="24" viewBox="12 12 24 24" fill="none" xmlns="http://www.w3.org/2000/svg">
<path d="M22 28V26.0003M22 26.0003V24M22 26.0003L24 26.0005M22 26.0003L20 26M33 24V23.2C33 22.0799 33 21.5198 32.782 21.092C32.5903 20.7157 32.2843 20.4097 31.908 20.218C31.4802 20 30.9201 20 29.8 20H15M33 24V28M33 24H31C29.8954 24 29 24.8954 29 26C29 27.1046 29.8954 28 31 28H33M33 28V28.8C33 29.9201 33 30.4802 32.782 30.908C32.5903 31.2843 32.2843 31.5903 31.908 31.782C31.4802 32 30.9201 32 29.8 32H18.2C17.0799 32 16.5198 32 16.092 31.782C15.7157 31.5903 15.4097 31.2843 15.218 30.908C15 30.4802 15 29.9201 15 28.8V20M30 20V19.2C30 18.0799 30 17.5198 29.782 17.092C29.5903 16.7157 29.2843 16.4097 28.908 16.218C28.4802 16 27.9201 16 26.8 16H18.2C17.0799 16 16.5198 16 16.092 16.218C15.7157 16.4097 15.4097 16.7157 15.218 17.092C15 17.5198 15 18.0799 15 19.2V20" stroke="#0E5AE7" stroke-width="1.5" stroke-linecap="round" stroke-linejoin="round"/>
</svg>
