<svg width="24" height="24" viewBox="12 12 24 24" fill="none" xmlns="http://www.w3.org/2000/svg">
<path d="M23 30H18.2C17.0799 30 16.5198 30 16.092 29.782C15.7157 29.5903 15.4097 29.2843 15.218 28.908C15 28.4802 15 27.9201 15 26.8V19.2C15 18.0799 15 17.5198 15.218 17.092C15.4097 16.7157 15.7157 16.4097 16.092 16.218C16.5198 16 17.0799 16 18.2 16H29.8C30.9201 16 31.4802 16 31.908 16.218C32.2843 16.4097 32.5903 16.7157 32.782 17.092C33 17.5198 33 18.0799 33 19.2V23M15 20H33M30 32V26M33 29.0008L27 29" stroke="#0E5AE7" stroke-width="1.5" stroke-linecap="round" stroke-linejoin="round"/>
</svg>
